<svg xmlns="http://www.w3.org/2000/svg" viewBox="0 0 223.3 108">
  <path d="M220.9,348.8v94.1a2.4,2.4,0,0,1-1.2,2.1,44.8,44.8,0,0,1-7.2,2.8,1.5,1.5,0,0,1-1.3,0,44.4,44.4,0,0,1-16-8.6,2.3,2.3,0,0,1-.8-1.8V354.2a2.5,2.5,0,0,1,.8-1.8,47.6,47.6,0,0,1,16-8.6,2.9,2.9,0,0,1,1.3,0,45.1,45.1,0,0,1,7.2,2.9A2.4,2.4,0,0,1,220.9,348.8Z" transform="translate(-194.4 -341.8)" fill="#231f20"/>
  <path d="M277.4,395.8a58.1,58.1,0,0,1-1.3,12c-3.1,15.5-12.3,28.4-24.6,35.6a45.1,45.1,0,0,1-23.1,6.4h-4.3a2.3,2.3,0,0,1-.8-4.4l1.6-.9c13.1-7.1,22.9-20.4,26.2-36.5a11.6,11.6,0,0,0,.4-1.8,56.9,56.9,0,0,0,.9-10.2,52.9,52.9,0,0,0-.6-8l-.3-2.1c-2.9-16.9-13-31-26.6-38.4l-1.6-.8a2.4,2.4,0,0,1,.8-4.5h.8l3.5-.2a45.1,45.1,0,0,1,23.1,6.4c13.4,7.9,23,22.5,25.3,39.6A52.9,52.9,0,0,1,277.4,395.8Z" transform="translate(-194.4 -341.8)" fill="#231f20"/>
  <path d="M393.7,377.9v31.6a2.3,2.3,0,0,1-2.3,2.3h-3.6a2.3,2.3,0,0,1-2.3-2.3V381.7a18.5,18.5,0,0,0-18.3-15.1h-.1a18.5,18.5,0,0,0-17.5,12.5,1.9,1.9,0,0,0-.1.8v29.6a2.3,2.3,0,0,1-2.3,2.3h-4.3a2.3,2.3,0,0,1-2.3-2.3V360.2a2.3,2.3,0,0,1,2.3-2.4h4.3a2.3,2.3,0,0,1,2.3,2.4h0a2.3,2.3,0,0,0,3.6,1.9,26.2,26.2,0,0,1,14-4.2h.6a27.2,27.2,0,0,1,17.8,6.7,26.8,26.8,0,0,1,8.1,12.7A1.7,1.7,0,0,1,393.7,377.9Z" transform="translate(-194.4 -341.8)" fill="#231f20"/>
  <path d="M417.3,396.7a2.4,2.4,0,0,1,.1,2.2l-6.2,11.6-15.8,29.4-1.9,3.6a2.5,2.5,0,0,1-1.9,1.2h-3.1a2.3,2.3,0,0,1-1.8-1.2l-1.9-3.6-16-29.9-5.9-10.9a2.4,2.4,0,0,1,.1-2.2c.5-.8,1-1.6,1.6-2.4a29.2,29.2,0,0,1,4.1-4.5h.1l2.3,4.4,18.4,34.4.6,1,19-35.4,2.1-3.9.4-.8a31.3,31.3,0,0,1,4.2,4.7Z" transform="translate(-194.4 -341.8)" fill="#231f20"/>
  <path d="M334.2,393.5v-5.6a23.1,23.1,0,0,0-1-2.8H333l-1.7-3.2v-.2A26.3,26.3,0,0,0,316,370.1h0a24.3,24.3,0,0,0-7.7-1.2h-.7a26.8,26.8,0,0,0-25,18.8,27.3,27.3,0,0,0-1.3,8h0a26.4,26.4,0,0,0,2.8,11.9,26.8,26.8,0,0,0,23.5,15.1h.7a27.1,27.1,0,0,0,22.1-11.4,2.3,2.3,0,0,0-1.9-3.7h-6.8a2.6,2.6,0,0,0-1.6.7,17.2,17.2,0,0,1-11.8,4.7h-.7a16.4,16.4,0,0,1-11.7-5.3,16.9,16.9,0,0,1-4.8-11.9h40.8A2.3,2.3,0,0,0,334.2,393.5Zm-26.6-14.8h.7a17.1,17.1,0,0,1,12.3,5.2,2.3,2.3,0,0,1-1.7,3.9H297.7a2.3,2.3,0,0,1-1.7-3.9A17.6,17.6,0,0,1,307.6,378.7Z" transform="translate(-194.4 -341.8)" fill="#231f20"/>
</svg>
