<svg xmlns="http://www.w3.org/2000/svg" viewBox="0 0 327 314">
  <g>
    <polyline points="113.5 254.1 113.5 289.1 113.5 290" fill="none" stroke="#231f20" stroke-miterlimit="10"/>
    <polyline points="183.6 254.1 183.6 289.1 183.6 289.5" fill="none" stroke="#231f20" stroke-miterlimit="10"/>
    <polyline points="183.6 78.6 183.6 43.5 183.6 20.1" fill="none" stroke="#231f20" stroke-miterlimit="10"/>
    <polyline points="218.7 78.6 218.7 43.5 218.7 25.3" fill="none" stroke="#231f20" stroke-miterlimit="10"/>
    <line x1="253.8" y1="78.6" x2="253.8" y2="46.7" fill="none" stroke="#231f20" stroke-miterlimit="10"/>
    <line x1="78.4" y1="272.5" x2="78.4" y2="254.1" fill="none" stroke="#231f20" stroke-miterlimit="10"/>
    <polyline points="78.4 60.5 78.4 78.6 78.4 113.7" fill="none" stroke="#231f20" stroke-miterlimit="10"/>
    <polyline points="148.6 254.1 148.6 289.1 148.6 294" fill="none" stroke="#231f20" stroke-miterlimit="10"/>
    <polyline points="113.5 78.6 78.4 78.6 62.3 78.6" fill="none" stroke="#231f20" stroke-miterlimit="10"/>
    <line x1="183.6" y1="78.6" x2="148.5" y2="78.6" fill="none" stroke="#231f20" stroke-miterlimit="10"/>
    <line x1="275.4" y1="219" x2="253.8" y2="219" fill="none" stroke="#231f20" stroke-miterlimit="10"/>
    <line x1="218.7" y1="254.1" x2="183.6" y2="254.1" fill="none" stroke="#231f20" stroke-miterlimit="10"/>
    <polyline points="185 289.1 183.6 289.1 148.6 289.1 113.5 289.1 110 289.1" fill="none" stroke="#231f20" stroke-miterlimit="10"/>
    <line x1="183.6" y1="113.7" x2="148.5" y2="113.7" fill="none" stroke="#231f20" stroke-miterlimit="10"/>
    <path d="M380.1,270.8a142.2,142.2,0,0,0-53.9-11.9H322a146.8,146.8,0,0,0-66,15.7c-4.7,2.4-9.2,5-13.6,7.8a147.4,147.4,0,0,0-21.5,17,162.7,162.7,0,0,0-16.1,18.1,154.4,154.4,0,0,0-19,33.9c-.1.4-.3.8-.4,1.2-.9,2.3-1.8,4.7-2.6,7.1a153.5,153.5,0,0,0-6.2,28,147.6,147.6,0,0,0-1.1,17.7,142.6,142.6,0,0,0,1.1,17.4,135.8,135.8,0,0,0,3.3,18.2,138.1,138.1,0,0,0,5.3,16.9l.6,1.5a147.1,147.1,0,0,0,35.1,52,127.3,127.3,0,0,0,11.1,9.6c-3.8-1.7-7.5-3.4-11.1-5.4a146.6,146.6,0,0,1-31.4-22.6l-3.7-3.6a149.5,149.5,0,0,1-23.7-31.5,147.4,147.4,0,0,1-11.4-26c-.9-3-1.8-6-2.6-9.1a144.9,144.9,0,0,1-4.5-35.1,5.3,5.3,0,0,1-.1-1.3,145.4,145.4,0,0,1,4-33.8c.9-3.9,2-7.8,3.2-11.6a145.5,145.5,0,0,1,35.1-57.5l1.1-1.1a148.6,148.6,0,0,1,34-25.2,142,142,0,0,1,23-9.8c4-1.4,8-2.5,12.1-3.5a146.5,146.5,0,0,1,34-4h1.1a150,150,0,0,1,35.1,4.5c3.4.9,6.7,1.9,10,3a148,148,0,0,1,25.1,11A149.6,149.6,0,0,1,380.1,270.8Z" transform="translate(-142.5 -238.8)" fill="#262262" stroke="#27aae1" stroke-miterlimit="10" stroke-width="2"/>
    <path d="M468.5,405.3a142.7,142.7,0,0,1-1,17.4c-.2,2.3-.6,4.6-1,6.9a146.5,146.5,0,0,1-7.6,28.2,148.3,148.3,0,0,1-19.4,35.1c-2.5,3.4-5.2,6.7-8,9.9A150.1,150.1,0,0,1,402.2,528l-5.8,3.6a145.4,145.4,0,0,1-35.1,14.9,150.3,150.3,0,0,1-35.1,5.3H322a150,150,0,0,1-30.9-3.2A145.1,145.1,0,0,1,256,536.1a122.6,122.6,0,0,1-14.1-8.1c-3.4-2.3-6.7-4.6-9.9-7.1a154.9,154.9,0,0,0,20.5,7.1l3.5.9a146.5,146.5,0,0,0,34,3.9h1.1a144.9,144.9,0,0,0,35.1-4.5l1.4-.3a146.1,146.1,0,0,0,63-35.1c2-1.9,3.9-3.8,5.8-5.8A148.8,148.8,0,0,0,418,457.8a156.4,156.4,0,0,0,7.9-16.5c2.1-5.3,4-10.9,5.6-16.5a7.5,7.5,0,0,1,.4-1.6h0l.4-.5H432c.8-3,1.4-6,2-9a135.7,135.7,0,0,0,2.3-19.3c.1-2.2.2-4.5.2-6.8v-1.3c0-2.5,0-5.1-.2-7.6l1.1.7c2.3,1.5,3.4,3,3.4,4.3v1l1.6.9,9.8-19.1-1.7-.9a4.8,4.8,0,0,1-2.9,1.3,17.7,17.7,0,0,1-4.3-1.3c-3.1-1.4-6.1-2.5-8.7-3.5-.6-3.2-1.2-6.4-2-9.6-.3-1.5-.7-3.1-1.1-4.6a146.9,146.9,0,0,0-12.1-30.5,154.1,154.1,0,0,0-23-31.9l-3.2-3.2a143.7,143.7,0,0,0-13.1-11.5,138.6,138.6,0,0,1,16.3,8.3l5.3,3.2a151.7,151.7,0,0,1,29.8,25.6c2.7,3.1,5.3,6.3,7.7,9.5a141.9,141.9,0,0,1,19.5,35.1,137.3,137.3,0,0,1,7.8,28.6c.4,2.1.7,4.3,1,6.5A147.6,147.6,0,0,1,468.5,405.3Z" transform="translate(-142.5 -238.8)" fill="#fff" stroke="#00a79d" stroke-miterlimit="10" stroke-width="2"/>
    <path d="M431.5,422.7v.9a17.7,17.7,0,0,1-3.5,2.3,32.2,32.2,0,0,1-13.5,2.6,51,51,0,0,1-15.4-2.5l-2.7-.9a27.3,27.3,0,0,1-5.4-2.4,24,24,0,0,1-3.9-2.6,6.6,6.6,0,0,1-2.5-5v-.7l-1.8-.9-4,9.2L374,433.5l1.7.9a5.2,5.2,0,0,1,2.5-1.3,17.5,17.5,0,0,1,4,1.5,79.5,79.5,0,0,0,14.2,5.4v47.1A148.8,148.8,0,0,0,418,457.8a156.4,156.4,0,0,0,7.9-16.5c2.1-5.3,4-10.9,5.6-16.5a7.5,7.5,0,0,1,.4-1.6h0l.4-.5ZM326.2,317.4h93.2a154.1,154.1,0,0,0-23-31.9l-3.2-3.2a143.7,143.7,0,0,0-13.1-11.5,142.2,142.2,0,0,0-53.9-11.9H322a146.8,146.8,0,0,0-66,15.7c-4.7,2.4-9.2,5-13.6,7.8a147.4,147.4,0,0,0-21.5,17,162.7,162.7,0,0,0-16.1,18.1,154.4,154.4,0,0,0-19,33.9c-.1.4-.3.8-.4,1.2-.9,2.3-1.8,4.7-2.6,7.1a153.5,153.5,0,0,0-6.2,28,147.6,147.6,0,0,0-1.1,17.7,142.6,142.6,0,0,0,1.1,17.4,135.8,135.8,0,0,0,3.3,18.2,138.1,138.1,0,0,0,5.3,16.9l.6,1.5V440.9h53.9a3.7,3.7,0,0,1,2.7.9,5.3,5.3,0,0,1,1.6,2.9h1.9v-21H244a6,6,0,0,1-1.6,3,4.1,4.1,0,0,1-2.7.8H187.3V405.2h33.6a3.1,3.1,0,0,1,2.2.8,7.1,7.1,0,0,1,1.6,2.9h1.9V388.5h-1.9a6.9,6.9,0,0,1-1.6,3,4.4,4.4,0,0,1-2.2.8H187.3V373h50.9a4.4,4.4,0,0,1,2.8.8,7,7,0,0,1,1.5,3h1.9v-21h-1.9a6,6,0,0,1-1.5,2.9,3.9,3.9,0,0,1-2.8.9H185.8v-7.1H256V282.3h35.1v91.3l-3.2-6.1a5.1,5.1,0,0,1-.8-2.7c0-1.7.9-2.8,2.8-3.3v-1.9H258.5v1.9a7,7,0,0,1,3,1.5,4.7,4.7,0,0,1,.8,2.8v68.9a4.7,4.7,0,0,1-.8,2.8,7,7,0,0,1-3,1.5v1.9h23.9V439a7,7,0,0,1-3-1.5,4.7,4.7,0,0,1-.8-2.8V387.6h1.5l11,20.5v14.6h7.8l9.7,18.2,10.3-18.2h7.3v-13l12.5-22.1h1.6v47.1a3.9,3.9,0,0,1-.9,2.8,5,5,0,0,1-2.9,1.5v1.9h25.4V439l-.6-.2V361.7l.6-.2v-1.9H331.1v1.9q3,.3,3,2.7a9.5,9.5,0,0,1-1.5,4L326.2,380Zm124.3,48.2a4.8,4.8,0,0,1-2.9,1.3,17.7,17.7,0,0,1-4.3-1.3c-3.1-1.4-6.1-2.5-8.7-3.5-.6-3.2-1.2-6.4-2-9.6-.3-1.5-.7-3.1-1.1-4.6v4.6H396.4v7.7a28.3,28.3,0,0,0-12.3,6.8,22.7,22.7,0,0,0-7.1,17.1c0,1.2.1,2.4.2,3.5a21.4,21.4,0,0,0,2.6,7.6,19.3,19.3,0,0,0,8.5,8A34.1,34.1,0,0,0,396,406h.4a121.6,121.6,0,0,0,12.6,1.7l9.2,1c6.1.7,10.2,1.4,12.3,2.2l1,.4a7,7,0,0,1,2.5,2.3,135.7,135.7,0,0,0,2.3-19.3l-2.2-.7-2.6-.7a81.2,81.2,0,0,0-10.9-1.7l-9.3-1q-9.4-.9-12.3-1.8a7.3,7.3,0,0,1-2.2-.9l-.4-.2a5.6,5.6,0,0,1-3-5.1,7.8,7.8,0,0,1,2.2-5.2l.8-.7a13.3,13.3,0,0,1,4.9-2.9,38,38,0,0,1,11.2-1.5,43.7,43.7,0,0,1,19,4,25.5,25.5,0,0,1,4.8,2.7l1.1.7c2.3,1.5,3.4,3,3.4,4.3v1l1.6.9,9.8-19.1ZM326.2,457.8v35.1H204.6a142.9,142.9,0,0,0,16.3,18.4,127.3,127.3,0,0,0,11.1,9.6,154.9,154.9,0,0,0,20.5,7.1l3.5.9a146.5,146.5,0,0,0,34,3.9h1.1a144.9,144.9,0,0,0,35.1-4.5l1.4-.3a150.5,150.5,0,0,0,33.7-13.6V457.8Z" transform="translate(-142.5 -238.8)" fill="#231f20" stroke="#262262" stroke-miterlimit="10" stroke-width="2"/>
    <path d="M291.1,457.8v35.1H204.6a143.5,143.5,0,0,1-18.8-33.6v-1.5Z" transform="translate(-142.5 -238.8)" fill="none" stroke="#231f20" stroke-miterlimit="10"/>
    <path d="M396.4,440v47.1c-1.9,2-3.8,3.9-5.8,5.8a151.4,151.4,0,0,1-29.3,21.5V440.9h.6V439l-.6-.2V422.7h17.5L374,433.5l1.7.9a5.2,5.2,0,0,1,2.5-1.3,17.5,17.5,0,0,1,4,1.5A79.5,79.5,0,0,0,396.4,440Z" transform="translate(-142.5 -238.8)" fill="none" stroke="#231f20" stroke-miterlimit="10"/>
    <polygon points="183.6 183.9 183.6 254.1 148.6 254.1 148.6 183.9 156.3 183.9 166.1 202.1 176.3 183.9 183.6 183.9" fill="none" stroke="#231f20" stroke-miterlimit="10"/>
    <path d="M431.5,347.9v4.6H361.3V317.4h58.1A146.9,146.9,0,0,1,431.5,347.9Z" transform="translate(-142.5 -238.8)" fill="none" stroke="#2e3192" stroke-miterlimit="10"/>
    <path d="M361.3,317.4v42.2H331.1v1.9q3,.3,3,2.7a9.5,9.5,0,0,1-1.5,4L326.2,380V317.4Z" transform="translate(-142.5 -238.8)" fill="none" stroke="#2e3192" stroke-miterlimit="10"/>
    <g>
      <path d="M243.9,419.3a6,6,0,0,1-1.6,3,4.1,4.1,0,0,1-2.7.8H187.3V400.8h33.5a3.7,3.7,0,0,1,2.2.9,5.7,5.7,0,0,1,1.6,2.9h1.9V384.1h-1.9A5.3,5.3,0,0,1,223,387a3.7,3.7,0,0,1-2.2.9H187.3V368.6h50.9a4.3,4.3,0,0,1,2.7.8,6,6,0,0,1,1.5,3h2V351.3h-2a5.6,5.6,0,0,1-1.5,3,3.8,3.8,0,0,1-2.7.9H182.7a149.9,149.9,0,0,0-6.2,28,147.6,147.6,0,0,0-1,17.7,142.7,142.7,0,0,0,1,17.4,135.8,135.8,0,0,0,3.3,18.2h59.8a4.1,4.1,0,0,1,2.7.8,6,6,0,0,1,1.6,3h1.9v-21Z" transform="translate(-142.5 -238.8)" fill="#231f20" stroke="#00a79d" stroke-miterlimit="10" stroke-width="2"/>
      <path d="M358,361.4a3.9,3.9,0,0,1,.8-2.8,6.6,6.6,0,0,1,2.4-1.4h.6v-1.9H331v1.9q3,.3,3,2.7a10,10,0,0,1-1.5,4l-6.4,11.8-4.2,7.6L310,405.1l-11.6-21.9L291,369.1l-3.2-6a6.7,6.7,0,0,1-.8-2.8,3.1,3.1,0,0,1,2.8-3.2v-1.9H258.4v1.9a6.4,6.4,0,0,1,3,1.5,3.9,3.9,0,0,1,.8,2.8v68.9a4.1,4.1,0,0,1-.8,2.8,6.4,6.4,0,0,1-3,1.5v1.9h23.9v-1.9a7,7,0,0,1-3-1.5,4.7,4.7,0,0,1-.8-2.8v-50l1.6,2.9L291,403.7l7.8,14.6,9.7,18.2,10.3-18.2,7.3-13,12.5-22.1,1.6-2.9v50a4.1,4.1,0,0,1-.9,2.8,6,6,0,0,1-2.9,1.5v1.9h25.4v-1.9l-.6-.2a5.4,5.4,0,0,1-2.4-1.3,4.1,4.1,0,0,1-.8-2.8Z" transform="translate(-142.5 -238.8)" fill="#231f20" stroke="#00a79d" stroke-miterlimit="10" stroke-width="2"/>
      <path d="M431.4,419.1a14.1,14.1,0,0,1-3.5,2.3,30.7,30.7,0,0,1-13.5,2.7,51.5,51.5,0,0,1-15.4-2.5l-2.7-.9a27.3,27.3,0,0,1-5.4-2.4,24,24,0,0,1-3.9-2.6,6.7,6.7,0,0,1-2.5-5v-.8l-1.8-.8-4,9.2-4.8,10.8,1.8.9a5.1,5.1,0,0,1,2.4-1.4,20.9,20.9,0,0,1,4,1.6,79.5,79.5,0,0,0,14.2,5.4,66.2,66.2,0,0,0,17.7,2.3,64.8,64.8,0,0,0,11.8-1,160.1,160.1,0,0,0,5.6-16.5,10.5,10.5,0,0,1,.4-1.7Zm19-58a4.5,4.5,0,0,1-2.9,1.4,16.6,16.6,0,0,1-4.3-1.4l-8.7-3.4-3.1-1-5-1.4a66.4,66.4,0,0,0-14.5-1.6,52.6,52.6,0,0,0-15.6,2.1,28.3,28.3,0,0,0-12.3,6.8,22.7,22.7,0,0,0-7.1,17.1c0,1.2.1,2.4.2,3.5a21.4,21.4,0,0,0,2.6,7.6,20.5,20.5,0,0,0,8.5,8,34.1,34.1,0,0,0,7.7,2.8h.4c2.6.5,6.8,1.1,12.6,1.7l9.2,1c6.2.6,10.2,1.4,12.3,2.2l1,.4a7,7,0,0,1,2.5,2.3,135.7,135.7,0,0,0,2.3-19.3l-2.2-.7-2.6-.7a98.8,98.8,0,0,0-10.9-1.8l-9.3-.9q-9.4-.9-12.3-1.8a7.3,7.3,0,0,1-2.2-.9l-.4-.2a5.6,5.6,0,0,1-2.9-5.1,7.7,7.7,0,0,1,2.1-5.2l.8-.8a14.6,14.6,0,0,1,4.9-2.8,38,38,0,0,1,11.2-1.5,45.1,45.1,0,0,1,19,3.9,34.3,34.3,0,0,1,4.9,2.8l1,.6c2.3,1.6,3.4,3,3.4,4.4v.9l1.7,1,9.7-19.2Z" transform="translate(-142.5 -238.8)" fill="#231f20" stroke="#00a79d" stroke-miterlimit="10" stroke-width="2"/>
    </g>
  </g>
</svg>
